<?xml version="1.0" encoding="utf-8"?>
<!-- Generator: Adobe Illustrator 16.0.0, SVG Export Plug-In . SVG Version: 6.00 Build 0)  -->
<!DOCTYPE svg PUBLIC "-//W3C//DTD SVG 1.1//EN" "http://www.w3.org/Graphics/SVG/1.1/DTD/svg11.dtd">
<svg version="1.1" id="Layer_1" xmlns="http://www.w3.org/2000/svg" xmlns:xlink="http://www.w3.org/1999/xlink" x="0px" y="0px"
	 width="98.564px" height="84.05px" viewBox="0 0 98.564 84.05" enable-background="new 0 0 98.564 84.05" xml:space="preserve">
<g>
	<path fill="#42484D" d="M56.689,0c23.127,0,41.875,18.748,41.875,41.875c0,22.115-21.274,41.875-41.875,41.875
		c-23.127,0-41.875-18.748-41.875-41.875C14.814,18.748,33.562,0,56.689,0z"/>
	<path fill="#3B4044" d="M80.122,31.326c-0.296-0.279-0.689-0.436-1.117-0.436H34.373c-0.924,0-1.675,0.75-1.675,1.675v16.164
		c0,0.473,0.191,0.892,0.488,1.196l32.891,32.49C82.03,77.14,95.345,63.951,97.481,49.252L80.296,31.5
		C80.244,31.43,80.183,31.369,80.122,31.326z"/>
	<path fill="#1582CC" d="M79.003,32.891H34.376c-0.926,0-1.677,0.751-1.677,1.678v14.164c0,0.927,0.751,1.679,1.677,1.679h44.627
		c0.926,0,1.678-0.752,1.678-1.679V34.569C80.68,33.642,79.928,32.891,79.003,32.891z"/>
	<path fill="#3B93EA" d="M79.003,30.888H34.376c-0.926,0-1.677,0.751-1.677,1.679v14.164c0,0.927,0.751,1.678,1.677,1.678h44.627
		c0.926,0,1.678-0.751,1.678-1.678V32.567C80.68,31.64,79.928,30.888,79.003,30.888z"/>
	<polygon fill="#FFFFFF" points="84.809,50.667 71.577,45.5 76.745,58.731 78.658,54.763 82.542,58.646 84.723,56.463 80.84,52.581 
			"/>
	<g>
		<path fill="#FFFFFF" d="M44.73,39.751l-1.329,4.587h-2.108l-2.136-7.162h2.053l1.26,5.08l1.369-5.08h1.781l1.354,5.08l1.274-5.08
			h2.053l-2.15,7.162h-2.107L44.73,39.751z"/>
		<path fill="#FFFFFF" d="M56.751,39.751l-1.328,4.587h-2.107l-2.137-7.162h2.054l1.26,5.08l1.368-5.08h1.781l1.355,5.08l1.273-5.08
			h2.053l-2.149,7.162h-2.108L56.751,39.751z"/>
		<path fill="#FFFFFF" d="M68.772,39.751l-1.329,4.587h-2.107l-2.137-7.162h2.054l1.261,5.08l1.368-5.08h1.78l1.355,5.08l1.273-5.08
			h2.054l-2.149,7.162h-2.109L68.772,39.751z"/>
	</g>
</g>
</svg>
