<svg id="Layer_1" data-name="Layer 1" xmlns="http://www.w3.org/2000/svg" viewBox="0 0 194 194"><defs><style>.cls-1{fill:none;stroke:#fff;stroke-miterlimit:10;stroke-width:5px;}</style></defs><title>logo_m</title><path class="cls-1" d="M50.85,160.37a5,5,0,0,1-5-5V55.87a5,5,0,0,1,10,0v99.51A5,5,0,0,1,50.85,160.37Zm78.38,0a5,5,0,0,1-5-5V109.15l-20.11,28.91a5.31,5.31,0,0,1-7,1.32,9.24,9.24,0,0,1-1.17-1.32L75.8,109.15v46.23a5,5,0,0,1-5.14,5,4.92,4.92,0,0,1-4.84-5V93.29a4.88,4.88,0,0,1,2.05-4,5.13,5.13,0,0,1,7,1.18l25,36.1,25.25-36a4.87,4.87,0,0,1,4.11-2.2,4.92,4.92,0,0,1,5,4.84v62.09A5,5,0,0,1,129.23,160.37Zm19.81,0a4.92,4.92,0,0,1-4.84-5V55.87a4.92,4.92,0,0,1,4.84-5,5,5,0,0,1,5.14,5v99.51A5,5,0,0,1,149,160.37Zm-49-68.6.14.21L127,53.08c-20.47-32.4,4.85-2.79,7-1.17a5.09,5.09,0,0,1,1.17,6.9l-31.12,44.47A3.45,3.45,0,0,1,103,104.6a4.71,4.71,0,0,1-2.93,1m0,0a4.67,4.67,0,0,1-2.93-1,3.39,3.39,0,0,1-1.18-1.32L64.79,58.81A5.08,5.08,0,0,1,66,51.91c2.19-1.62,27.51-31.23,7,1.17L99.87,92l.15-.21" transform="translate(-3.02 -2.18)"/><circle class="cls-1" cx="100.02" cy="99.18" r="94.5" transform="translate(-33.36 43.64) rotate(-22.5)"/><circle class="cls-1" cx="97" cy="97" r="86.16"/><circle class="cls-1" cx="97" cy="34.06" r="9.13"/></svg>