<svg id="Layer_1" data-name="Layer 1" xmlns="http://www.w3.org/2000/svg" viewBox="0 0 64.36 64.36"><defs><style>.cls-1,.cls-2{fill:none;stroke:#f15a24;stroke-miterlimit:10;}.cls-2{stroke-width:2px;}</style></defs><title>logo-1</title><path class="cls-1" d="M18.79,55.37a1.63,1.63,0,0,1-1.64-1.65V20.89a1.65,1.65,0,1,1,3.29,0V53.72A1.64,1.64,0,0,1,18.79,55.37Zm25.87,0A1.63,1.63,0,0,1,43,53.72V38.47L36.37,48a1.75,1.75,0,0,1-2.32.44,3.74,3.74,0,0,1-.39-.44L27,38.47V53.72a1.65,1.65,0,0,1-1.7,1.65,1.63,1.63,0,0,1-1.6-1.65V33.24a1.62,1.62,0,0,1,.68-1.31,1.7,1.7,0,0,1,2.33.39L35,44.23,43.3,32.37a1.6,1.6,0,0,1,1.36-.73,1.62,1.62,0,0,1,1.64,1.6V53.72A1.63,1.63,0,0,1,44.66,55.37Zm6.53,0a1.63,1.63,0,0,1-1.6-1.65V20.89a1.63,1.63,0,0,1,1.6-1.65,1.65,1.65,0,0,1,1.7,1.65V53.72A1.65,1.65,0,0,1,51.19,55.37ZM35,32.74l0,.07L43.93,20c-6.76-10.69,1.6-.92,2.32-.39a1.68,1.68,0,0,1,.39,2.28L36.37,36.53A1.05,1.05,0,0,1,36,37a1.5,1.5,0,0,1-1,.34m0,0a1.55,1.55,0,0,1-1-.34,1.13,1.13,0,0,1-.39-.44L23.39,21.86a1.7,1.7,0,0,1,.39-2.28c.73-.53,9.08-10.3,2.33.39L35,32.81l.05-.07" transform="translate(-2.84 -3)"/><circle class="cls-2" cx="35.02" cy="35.18" r="31.18" transform="translate(-13.63 13.08) rotate(-22.5)"/><circle class="cls-2" cx="32.18" cy="32.18" r="28.43"/><circle class="cls-1" cx="32.18" cy="11.41" r="3.01"/></svg>