<?xml version="1.0" encoding="utf-8"?>
<!-- Generator: Adobe Illustrator 16.0.0, SVG Export Plug-In . SVG Version: 6.00 Build 0)  -->
<!DOCTYPE svg PUBLIC "-//W3C//DTD SVG 1.1//EN" "http://www.w3.org/Graphics/SVG/1.1/DTD/svg11.dtd">
<svg version="1.1" id="Layer_1" xmlns="http://www.w3.org/2000/svg" xmlns:xlink="http://www.w3.org/1999/xlink" x="0px" y="0px"
	 width="52.458px" height="62.759px" viewBox="0 0 52.458 62.759" enable-background="new 0 0 52.458 62.759" xml:space="preserve">
<g>
	<path fill="#FFFFFF" d="M36.517,61.996l0.002,0.003c0.002,0.002,0.005,0.003,0.008,0.005c0.157,0.179,0.356,0.316,0.57,0.437
		c0.064,0.037,0.127,0.063,0.193,0.093c0.167,0.073,0.343,0.127,0.529,0.16c0.067,0.015,0.131,0.033,0.199,0.04
		c0.037,0.005,0.07,0.018,0.105,0.021c0.218,0.014,0.431-0.004,0.636-0.048c0.021-0.003,0.038-0.015,0.061-0.02
		c0.226-0.053,0.432-0.144,0.623-0.257c0.026-0.016,0.06-0.019,0.086-0.035l12.114-7.983c0.927-0.612,1.086-1.781,0.352-2.612
		s-2.081-1.01-3.01-0.396l-6.531,4.303c1.866-7.223,1.199-14.627,1.166-14.977C42.292,17.96,23.637-0.309,2.036,0.004
		C0.965,0.02,0.121,0.715,0.014,1.61C0.001,1.706-0.003,1.803,0.002,1.901c0.061,1.031,1.067,1.854,2.249,1.838
		C21.493,3.46,38.13,20.082,39.341,40.852c0.012,0.096,0.703,7.746-1.253,14.631l-3.661-8.313c-0.43-0.975-1.673-1.486-2.774-1.147
		c-1.104,0.34-1.646,1.405-1.223,2.381l5.77,13.103C36.279,61.686,36.387,61.849,36.517,61.996z"/>
</g>
</svg>
